<?xml version="1.0" standalone="no"?>
<!DOCTYPE svg PUBLIC "-//W3C//DTD SVG 20010904//EN"
 "http://www.w3.org/TR/2001/REC-SVG-20010904/DTD/svg10.dtd">
<svg version="1.0" xmlns="http://www.w3.org/2000/svg"
 width="999.000000pt" height="1080.000000pt" viewBox="0 0 999.000000 1080.000000"
 preserveAspectRatio="xMidYMid meet">
<metadata>
Created by potrace 1.16, written by Peter Selinger 2001-2019
</metadata>
<g transform="translate(0.000000,1080.000000) scale(0.100000,-0.100000)"
fill="#000000" stroke="none">
<path d="M4661 10049 c-124 -21 -253 -92 -351 -195 -114 -121 -173 -269 -172
-439 0 -281 167 -510 442 -607 79 -28 254 -36 340 -14 189 47 343 170 424 338
53 111 66 168 66 290 0 177 -58 316 -185 444 -64 65 -97 89 -165 122 -131 64
-262 83 -399 61z m416 -285 c29 -19 48 -25 82 -22 l44 2 49 -144 c26 -80 48
-152 48 -161 0 -9 -11 -21 -25 -27 -27 -13 -65 -67 -65 -94 0 -13 -76 -42
-372 -138 -205 -66 -382 -125 -393 -129 -15 -6 -28 -1 -53 20 -23 21 -43 29
-70 29 l-37 0 -49 156 -50 155 26 22 c30 25 48 57 48 84 0 16 61 39 383 145
210 69 385 126 389 127 4 1 24 -11 45 -25z"/>
<path d="M4798 9681 c-113 -38 -274 -90 -357 -116 -146 -47 -151 -49 -151 -76
0 -16 -11 -38 -29 -55 l-29 -29 44 -137 c44 -135 45 -138 74 -138 16 0 41 -11
58 -25 l29 -25 364 119 364 119 17 40 c9 23 28 48 42 57 14 10 26 22 26 27 0
6 -18 68 -41 139 l-41 129 -43 0 c-27 0 -51 7 -68 20 -14 11 -31 20 -39 20 -7
-1 -106 -31 -220 -69z m276 -148 c35 -109 61 -201 58 -204 -15 -15 -665 -220
-672 -212 -9 10 -133 394 -128 397 7 6 654 215 665 215 7 1 39 -81 77 -196z
m41 167 l40 0 43 -127 42 -128 -31 -24 c-17 -13 -37 -38 -44 -55 -9 -22 -15
-26 -19 -16 -30 88 -116 363 -116 371 0 5 10 3 22 -5 12 -9 41 -16 63 -16z
m-736 -391 c34 -103 61 -189 61 -193 0 -4 -12 2 -26 13 -15 12 -39 21 -55 21
-27 0 -29 4 -68 126 l-40 127 29 27 c17 16 30 38 30 51 0 12 2 20 4 18 3 -2
32 -88 65 -190z"/>
<path d="M4834 9596 l-31 -14 42 -128 c23 -71 46 -129 51 -129 35 1 74 19 74
33 0 29 -15 41 -44 39 -21 -1 -30 4 -37 21 -7 19 -5 24 17 32 18 7 24 15 20
26 -3 9 -6 20 -6 25 0 5 -12 6 -26 3 -17 -4 -29 -2 -35 7 -14 22 -11 29 16 39
26 10 29 17 19 44 -7 19 -19 20 -60 2z"/>
<path d="M4763 9572 c-7 -5 -13 -29 -14 -55 -1 -26 -5 -47 -9 -47 -4 0 -12 18
-19 40 -7 25 -18 40 -27 40 -10 0 -14 -6 -11 -15 4 -8 23 -67 43 -132 20 -65
38 -120 40 -122 3 -3 9 0 15 6 8 8 8 21 -1 47 -6 20 -9 45 -5 54 5 13 12 6 31
-30 17 -33 31 -48 44 -48 11 0 20 3 20 6 0 4 -19 37 -42 73 -35 54 -44 77 -48
128 -4 46 -8 60 -17 55z"/>
<path d="M4600 9520 c-33 -21 0 -179 52 -245 13 -17 28 -25 42 -23 18 3 21 11
24 54 2 39 -1 53 -13 57 -11 5 -15 -1 -15 -23 0 -46 -25 -36 -49 19 -20 48
-28 111 -14 111 3 0 15 -7 25 -16 16 -15 18 -15 24 -1 7 18 -31 77 -49 77 -7
0 -19 -5 -27 -10z"/>
<path d="M7143 8896 c-173 -64 -283 -224 -283 -410 0 -301 282 -506 573 -416
120 37 243 156 278 268 20 66 23 213 5 274 -36 126 -150 244 -278 287 -87 30
-211 28 -295 -3z m57 -137 c0 -18 9 -19 123 -19 67 0 128 -4 135 -8 18 -12 30
-505 12 -527 -10 -12 -42 -15 -186 -15 -104 0 -175 4 -179 10 -3 6 -9 122 -12
259 -6 246 -6 249 15 267 12 10 22 24 22 31 0 17 29 31 51 26 11 -3 19 -14 19
-24z"/>
<path d="M7180 8683 c-14 -3 -27 -9 -30 -13 -3 -4 -3 -41 0 -82 l5 -73 110 -3
c161 -4 155 -7 155 87 0 63 -3 80 -16 85 -18 7 -186 6 -224 -1z"/>
<path d="M2650 8834 c-200 -39 -353 -169 -421 -360 -31 -86 -31 -235 -1 -326
46 -134 145 -249 265 -308 64 -31 177 -60 237 -60 60 0 173 29 237 60 276 136
374 496 204 757 -93 143 -242 228 -415 237 -45 3 -92 2 -106 0z m-42 -176 c7
-7 12 -20 12 -30 0 -17 12 -18 154 -18 85 0 157 -4 160 -9 3 -4 9 -145 12
-312 7 -281 6 -305 -10 -318 -14 -12 -63 -16 -215 -19 -176 -4 -199 -3 -214
13 -16 15 -17 45 -15 323 l3 307 23 10 c13 6 22 19 22 31 0 11 3 24 7 27 11
11 48 8 61 -5z"/>
<path d="M2562 8538 c-16 -16 -16 -170 0 -186 17 -17 278 -17 302 1 14 10 16
26 14 102 l-3 90 -150 3 c-109 2 -154 -1 -163 -10z"/>
<path d="M5363 8640 c-103 -27 -212 -86 -195 -105 4 -5 1 -5 -6 -1 -8 5 -33
-14 -71 -53 -166 -172 -208 -436 -105 -660 38 -84 145 -208 167 -194 4 2 6 -1
5 -8 -2 -6 3 -14 11 -17 9 -3 11 0 6 9 -5 8 -4 11 1 6 5 -5 9 -13 9 -19 0 -19
99 -67 180 -88 92 -23 184 -25 277 -5 77 16 214 84 210 104 -1 7 2 9 9 6 13
-9 71 44 62 58 -3 6 -1 7 5 3 16 -9 68 59 108 141 83 170 81 360 -3 528 -35
68 -82 127 -96 118 -7 -3 -9 -3 -5 2 11 11 -12 36 -25 28 -5 -3 -7 -1 -3 5 9
15 -54 64 -130 101 -127 62 -274 77 -411 41z m475 -182 c9 -9 12 -72 12 -223
0 -210 0 -212 -22 -223 -18 -8 -19 -11 -6 -11 10 -1 30 -19 44 -41 15 -22 31
-37 37 -33 6 3 7 1 3 -6 -4 -6 2 -24 13 -40 12 -16 21 -43 21 -60 l0 -31 -427
2 -428 3 -3 26 c-2 18 11 43 48 90 28 35 60 72 72 82 16 13 17 17 4 17 -30 0
-36 37 -36 234 0 164 3 197 16 210 13 14 57 16 328 16 229 0 315 -3 324 -12z"/>
<path d="M5240 8240 l0 -180 275 0 275 0 0 179 0 180 -275 1 -275 1 0 -181z"/>
<path d="M5217 7919 c-21 -28 -36 -53 -34 -55 2 -2 153 -3 336 -2 l331 3 -35
53 -36 52 -262 0 -262 0 -38 -51z"/>
<path d="M3338 7734 c-68 -16 -151 -56 -184 -89 -12 -12 -25 -21 -27 -18 -10
9 -107 -113 -136 -171 -81 -164 -79 -346 4 -505 39 -74 141 -185 163 -176 7 2
10 1 7 -5 -9 -14 90 -66 162 -86 35 -9 63 -21 63 -25 0 -10 -181 -640 -291
-1011 l-20 -68 -664 0 -665 0 0 -450 0 -449 101 -3 102 -3 152 -685 c84 -377
219 -982 300 -1345 81 -363 151 -689 156 -725 26 -187 175 -339 360 -369 43
-7 720 -11 2044 -11 1683 0 1990 3 2048 15 182 38 315 185 339 372 8 63 334
1550 556 2538 l47 210 98 3 97 3 0 449 0 450 -238 0 c-232 0 -239 1 -258 22
-10 11 -46 39 -79 60 -192 125 -468 107 -640 -42 -31 -27 -56 -40 -75 -40 -27
0 -30 4 -50 71 -24 79 -42 172 -42 208 0 15 -3 19 -8 12 -4 -8 -9 -1 -14 19
-3 18 -3 37 1 43 4 6 1 7 -7 2 -8 -5 -11 -3 -8 6 3 8 -3 30 -12 49 -17 34 -92
281 -87 286 1 2 20 -1 42 -6 58 -14 172 -12 230 4 165 44 297 176 340 341 66
255 -98 525 -355 584 -152 35 -314 -11 -437 -123 l-54 -49 -16 24 c-32 47
-107 110 -167 139 -265 128 -579 -36 -625 -327 -12 -78 -3 -145 42 -298 102
-343 168 -577 165 -581 -2 -2 -29 20 -60 49 -108 102 -249 157 -406 157 -186
0 -317 -54 -445 -183 -44 -43 -77 -81 -74 -84 3 -3 -3 -14 -13 -25 -31 -33
-71 -147 -83 -235 l-11 -82 -353 -1 -353 0 6 27 c6 24 144 504 188 653 94 317
129 460 131 539 3 105 -5 136 -59 220 -51 79 -113 136 -187 173 l-52 26 -18
85 c-24 120 -70 208 -149 287 -109 109 -235 161 -386 159 -44 0 -105 -7 -136
-15z m78 -269 c5 -13 34 -15 176 -15 l170 0 34 -34 c33 -33 34 -37 34 -108 l0
-74 -46 -12 c-26 -7 -47 -11 -48 -10 -1 2 -6 16 -11 32 -6 16 -27 43 -48 60
-32 25 -47 30 -90 30 -90 0 -147 -59 -147 -152 0 -44 49 -122 76 -122 9 0 14
-3 12 -7 -2 -5 -15 -32 -29 -60 l-24 -53 -148 0 -149 0 -29 30 -30 29 5 198
c4 209 6 234 17 227 4 -2 20 3 35 11 16 8 41 15 57 15 17 0 27 5 27 15 0 12
15 15 75 15 58 0 77 -4 81 -15z m227 -162 c18 -9 37 -16 42 -14 5 1 7 -1 3 -4
-4 -4 -1 -17 7 -29 25 -34 17 -53 -32 -84 -27 -16 -64 -45 -83 -65 -19 -20
-40 -37 -46 -37 -16 0 -61 51 -73 83 -27 72 42 166 122 167 15 0 42 -8 60 -17z
m3372 -313 c25 -13 50 -18 65 -15 25 5 27 2 57 -97 18 -57 35 -110 38 -119 4
-10 -3 -20 -19 -29 -14 -7 -32 -30 -40 -51 -9 -22 -18 -39 -21 -39 -3 0 -116
-36 -251 -80 -134 -44 -251 -80 -259 -80 -49 0 13 25 240 99 186 60 255 86
255 97 0 9 14 29 30 46 l30 30 -31 99 c-29 89 -35 99 -56 99 -13 0 -38 7 -55
16 -31 16 -36 15 -275 -62 -133 -43 -246 -75 -249 -71 -4 4 -5 9 -3 11 3 3
485 163 499 165 3 1 24 -8 45 -19z m-10 -163 c25 -79 45 -148 45 -154 0 -9
-478 -169 -485 -162 -10 11 -55 190 -50 199 13 21 24 8 46 -57 26 -81 28 -85
39 -78 5 3 -2 38 -16 77 -17 50 -21 74 -13 79 17 10 0 52 -18 45 -50 -20 -62
-18 -69 8 -3 15 -5 28 -3 30 4 4 459 153 471 155 4 1 28 -64 53 -142z m36 113
c25 0 29 -6 58 -92 l31 -92 -24 -21 c-13 -11 -28 -29 -34 -39 -8 -16 -17 6
-51 112 -23 73 -44 139 -48 149 -6 16 -5 16 17 0 14 -9 37 -17 51 -17z m-1361
-1155 l1 -205 -31 0 -30 0 0 180 0 180 -295 0 -295 0 0 -180 0 -180 -30 0 -30
0 0 193 c0 139 3 196 12 205 9 9 97 12 354 12 l343 -1 1 -204z m-2382 -1437
l3 -68 -121 0 -120 0 0 70 0 71 118 -3 117 -3 3 -67z m1377 -191 l0 -252 -310
0 -310 0 -3 245 c-1 134 -1 249 2 255 2 7 104 10 312 8 l309 -3 0 -253z m1049
252 c2 -2 6 -118 9 -257 l6 -252 -272 2 -272 3 -3 245 c-1 134 -1 249 2 255 3
9 522 13 530 4z m1356 -9 c0 -8 -24 -123 -53 -255 l-53 -240 -165 1 c-90 0
-253 1 -361 2 l-197 2 -1 248 c0 137 3 252 6 255 4 3 190 5 415 4 356 -2 409
-4 409 -17z m-3970 -328 c119 -59 184 -73 315 -71 l110 2 3 -52 3 -51 -304 0
-304 0 -37 173 c-21 94 -40 182 -43 195 -4 17 21 -3 83 -66 73 -73 105 -97
174 -130z m430 -892 l0 -209 -196 -3 c-108 -2 -198 0 -201 4 -5 9 -93 395 -93
409 0 5 105 9 245 9 l245 0 0 -210z m2200 198 c0 -4 -12 -8 -27 -9 l-28 -1 25
-7 c30 -8 40 -60 12 -62 -16 -1 -16 -2 0 -6 14 -4 16 -19 11 -141 -3 -87 -9
-140 -17 -144 -7 -5 -4 -8 7 -8 11 0 17 -6 15 -16 -2 -8 -6 -15 -10 -15 -5 1
-127 1 -273 1 l-265 0 0 209 0 210 275 -2 c151 0 275 -4 275 -9z m1113 -15
c-3 -16 -25 -111 -47 -212 -23 -101 -44 -183 -48 -182 -5 0 -120 1 -258 1
l-250 0 0 210 0 210 305 0 305 0 -7 -27z m-2255 -28 c14 -5 18 -266 3 -293
-10 -19 20 -67 34 -54 5 4 5 1 1 -5 -10 -18 -65 -16 -72 2 -5 13 -36 15 -190
15 -155 0 -186 -2 -190 -15 -4 -8 -19 -15 -35 -15 -22 0 -27 4 -22 17 5 12 3
14 -8 8 -12 -8 -12 -6 0 8 16 20 26 23 15 5 -5 -9 -2 -8 9 1 16 12 16 16 2 31
-12 13 -15 44 -15 146 0 71 4 134 8 141 5 8 45 13 117 15 125 3 324 -1 343 -7z
m-1058 -1070 l0 -186 -102 3 -102 3 -37 170 c-21 94 -39 176 -39 183 0 9 35
12 140 12 l140 0 0 -185z m1140 0 l0 -185 -315 0 -315 0 0 185 0 185 315 0
315 0 0 -185z m710 115 c0 -85 -6 -90 -119 -90 -79 0 -81 1 -81 24 0 13 6 26
13 29 9 3 9 9 1 23 -8 14 -8 24 0 38 8 14 8 20 -1 23 -38 14 -2 23 87 23 l100
0 0 -70z m350 -115 l0 -185 -276 0 -275 0 3 43 3 42 73 7 c138 12 261 99 318
223 l25 55 65 0 64 0 0 -185z m906 168 c-7 -25 -76 -338 -76 -346 0 -4 -72 -7
-160 -7 l-160 0 0 185 0 185 201 0 c186 0 200 -1 195 -17z"/>
<path d="M4180 3185 l0 -125 190 0 190 0 0 125 0 125 -190 0 -190 0 0 -125z"/>
<path d="M0 400 l0 -400 4995 0 4995 0 0 400 0 400 -4995 0 -4995 0 0 -400z
m1395 106 c25 -11 33 -19 29 -30 -7 -19 -5 -19 -40 -1 -36 18 -55 19 -78 2
-28 -21 -9 -45 49 -62 87 -25 108 -74 54 -127 -29 -29 -33 -30 -90 -25 -68 6
-72 8 -64 29 5 13 12 14 40 5 50 -15 100 1 100 33 0 16 -8 28 -25 36 -87 40
-105 51 -108 67 -14 70 53 106 133 73z m587 -48 l3 -62 36 32 c20 18 45 32 55
32 14 0 9 -9 -21 -40 l-39 -40 42 -60 c40 -57 41 -60 20 -60 -16 0 -32 14 -53
45 -16 25 -33 45 -37 45 -5 0 -8 -20 -8 -45 0 -38 -3 -45 -20 -45 -19 0 -20 7
-20 130 0 122 1 130 20 130 16 0 19 -8 22 -62z m-1353 -24 c12 -15 21 -40 21
-55 0 -29 0 -29 -65 -29 -72 0 -83 -12 -44 -51 17 -17 30 -20 65 -16 43 4 59
-5 28 -17 -45 -17 -106 3 -123 41 -45 98 56 206 118 127z m456 3 c20 -16 28
-35 32 -69 5 -42 3 -50 -25 -78 -41 -41 -83 -41 -124 0 -28 28 -30 36 -25 78
9 82 84 119 142 69z m622 8 c30 -21 44 -75 32 -120 -25 -88 -143 -88 -168 0
-20 72 20 135 84 135 17 0 40 -7 52 -15z"/>
<path d="M986 424 c-50 -50 -21 -144 44 -144 48 0 80 50 66 104 -13 53 -75 75
-110 40z"/>
</g>
</svg>
